<svg width="24" height="60" viewBox="0 0 24 60" fill="none" xmlns="http://www.w3.org/2000/svg">
<path d="M12 0C16.1421 0 19.5 3.35789 19.5 7.5C19.5 11.6421 16.1421 15 12 15C7.85789 15 4.5 11.6421 4.5 7.5C4.5 3.35789 7.85789 0 12 0ZM17.625 16.875H16.2937C13.6323 18.0988 10.4824 18.1516 7.70625 16.875H6.375C3.26836 16.875 0.75 19.3934 0.75 22.5V38.4375C0.75 39.9908 2.00918 41.25 3.5625 41.25H5.4375V57.1875C5.4375 58.7408 6.69668 60 8.25 60H15.75C17.3033 60 18.5625 58.7408 18.5625 57.1875V41.25H20.4375C21.9908 41.25 23.25 39.9908 23.25 38.4375V22.5C23.25 19.3934 20.7316 16.875 17.625 16.875Z" fill="#E63946"/>
</svg>
